<mxfile host="app.diagrams.net" modified="2022-11-10T09:46:18.135Z" agent="5.0 (Macintosh; Intel Mac OS X 10_15_7) AppleWebKit/537.36 (KHTML, like Gecko) Chrome/107.0.0.0 Safari/537.36" etag="PdFeXT1GbwlZt14g-yzr" version="20.5.3" type="github">
  <diagram id="aeUxhhyHhZNVSrKRaOec" name="Page-1">
    <mxGraphModel dx="818" dy="497" grid="1" gridSize="10" guides="1" tooltips="1" connect="1" arrows="1" fold="1" page="1" pageScale="1" pageWidth="827" pageHeight="1169" math="0" shadow="0">
      <root>
        <mxCell id="0" />
        <mxCell id="1" parent="0" />
        <mxCell id="GHEKxGHHFPr1by5XyFQC-21" value="" style="rounded=0;whiteSpace=wrap;html=1;" vertex="1" parent="1">
          <mxGeometry x="208" y="40" width="402" height="240" as="geometry" />
        </mxCell>
        <mxCell id="GHEKxGHHFPr1by5XyFQC-12" value="REST&lt;br&gt;API&lt;br&gt;(JSON)" style="edgeStyle=orthogonalEdgeStyle;rounded=1;orthogonalLoop=1;jettySize=auto;html=1;exitX=1;exitY=0.5;exitDx=0;exitDy=0;" edge="1" parent="1" source="GHEKxGHHFPr1by5XyFQC-10">
          <mxGeometry relative="1" as="geometry">
            <mxPoint x="210" y="160" as="targetPoint" />
          </mxGeometry>
        </mxCell>
        <mxCell id="GHEKxGHHFPr1by5XyFQC-10" value="Frontend&lt;br&gt;(React, Angular, etc...)" style="rounded=0;whiteSpace=wrap;html=1;" vertex="1" parent="1">
          <mxGeometry x="50" y="50" width="60" height="220" as="geometry" />
        </mxCell>
        <mxCell id="GHEKxGHHFPr1by5XyFQC-14" style="edgeStyle=orthogonalEdgeStyle;rounded=1;orthogonalLoop=1;jettySize=auto;html=1;exitX=1;exitY=0.5;exitDx=0;exitDy=0;entryX=0;entryY=0.5;entryDx=0;entryDy=0;" edge="1" parent="1" source="GHEKxGHHFPr1by5XyFQC-11" target="GHEKxGHHFPr1by5XyFQC-13">
          <mxGeometry relative="1" as="geometry" />
        </mxCell>
        <mxCell id="GHEKxGHHFPr1by5XyFQC-11" value="Controller" style="rounded=0;whiteSpace=wrap;html=1;" vertex="1" parent="1">
          <mxGeometry x="228" y="70" width="60" height="180" as="geometry" />
        </mxCell>
        <mxCell id="GHEKxGHHFPr1by5XyFQC-18" style="edgeStyle=orthogonalEdgeStyle;rounded=1;orthogonalLoop=1;jettySize=auto;html=1;exitX=1;exitY=0.5;exitDx=0;exitDy=0;" edge="1" parent="1" source="GHEKxGHHFPr1by5XyFQC-13" target="GHEKxGHHFPr1by5XyFQC-15">
          <mxGeometry relative="1" as="geometry" />
        </mxCell>
        <mxCell id="GHEKxGHHFPr1by5XyFQC-13" value="Service" style="rounded=0;whiteSpace=wrap;html=1;" vertex="1" parent="1">
          <mxGeometry x="328" y="70" width="60" height="180" as="geometry" />
        </mxCell>
        <mxCell id="GHEKxGHHFPr1by5XyFQC-19" style="edgeStyle=orthogonalEdgeStyle;rounded=1;orthogonalLoop=1;jettySize=auto;html=1;exitX=1;exitY=0.5;exitDx=0;exitDy=0;" edge="1" parent="1" source="GHEKxGHHFPr1by5XyFQC-15" target="GHEKxGHHFPr1by5XyFQC-16">
          <mxGeometry relative="1" as="geometry" />
        </mxCell>
        <mxCell id="GHEKxGHHFPr1by5XyFQC-20" style="edgeStyle=orthogonalEdgeStyle;rounded=1;orthogonalLoop=1;jettySize=auto;html=1;exitX=1;exitY=0.5;exitDx=0;exitDy=0;" edge="1" parent="1" source="GHEKxGHHFPr1by5XyFQC-15" target="GHEKxGHHFPr1by5XyFQC-17">
          <mxGeometry relative="1" as="geometry" />
        </mxCell>
        <mxCell id="GHEKxGHHFPr1by5XyFQC-15" value="Repository" style="rounded=0;whiteSpace=wrap;html=1;" vertex="1" parent="1">
          <mxGeometry x="428" y="70" width="60" height="180" as="geometry" />
        </mxCell>
        <mxCell id="GHEKxGHHFPr1by5XyFQC-16" value="Database" style="rounded=0;whiteSpace=wrap;html=1;" vertex="1" parent="1">
          <mxGeometry x="528" y="70" width="60" height="60" as="geometry" />
        </mxCell>
        <mxCell id="GHEKxGHHFPr1by5XyFQC-17" value="Another API" style="rounded=0;whiteSpace=wrap;html=1;" vertex="1" parent="1">
          <mxGeometry x="528" y="190" width="60" height="60" as="geometry" />
        </mxCell>
        <mxCell id="GHEKxGHHFPr1by5XyFQC-22" value="Backend" style="text;html=1;strokeColor=none;fillColor=none;align=center;verticalAlign=middle;whiteSpace=wrap;rounded=0;" vertex="1" parent="1">
          <mxGeometry x="208" y="40" width="60" height="30" as="geometry" />
        </mxCell>
      </root>
    </mxGraphModel>
  </diagram>
</mxfile>
